<svg width="85" height="85" viewBox="0 0 85 85" fill="none" xmlns="http://www.w3.org/2000/svg">
<circle cx="42.5" cy="42.5" r="41.5" fill="white"/>
<path d="M53.1004 26.9C53.1004 30.41 52.7029 30.8 49.1254 30.8H45.1504V38.6V46.4H53.1004H61.0504V50.3V54.2H53.1004H45.1504V58.1V62H53.1004H61.0504V58.1C61.0504 54.59 61.4479 54.2 65.0254 54.2H69.0004V46.4V38.6H61.0504H53.1004V34.7V30.8H61.0504H69.0004V26.9V23H61.0504H53.1004V26.9Z" fill="black"/>
<path d="M16 38.47V51.47L21.035 51.86C25.6725 52.25 25.9375 52.51 26.335 57.06L26.7325 62H33.3575H39.85V56.8V51.6H33.225H26.6V38.6V25.6H21.3H16V38.47Z" fill="black"/>
</svg>
