<svg width="26" height="26" viewBox="0 0 26 26" fill="none" xmlns="http://www.w3.org/2000/svg">
<g id="Group 32" filter="url(#filter0_d_410_566)">
<g id="Group 30">
<rect id="Rectangle 20" x="6.52148" y="2.521" width="2.52101" height="2.52101" transform="rotate(-180 6.52148 2.521)" fill="white"/>
<rect id="Rectangle 22" x="9.04199" y="5.04199" width="2.52101" height="2.52101" transform="rotate(-180 9.04199 5.04199)" fill="white"/>
<rect id="Rectangle 23" x="11.5635" y="7.56299" width="2.52101" height="2.52101" transform="rotate(-180 11.5635 7.56299)" fill="white"/>
<rect id="Rectangle 24" x="14.084" y="10.084" width="2.52101" height="2.52101" transform="rotate(-180 14.084 10.084)" fill="white"/>
<rect id="Rectangle 25" x="16.6055" y="12.605" width="2.52101" height="2.52101" transform="rotate(-180 16.6055 12.605)" fill="white"/>
<rect id="Rectangle 26" x="19.126" y="15.126" width="2.52101" height="2.52101" transform="rotate(-180 19.126 15.126)" fill="white"/>
<rect id="Rectangle 27" x="21.6475" y="17.647" width="2.52101" height="2.52101" transform="rotate(-180 21.6475 17.647)" fill="white"/>
</g>
<g id="Group 31">
<rect id="Rectangle 20_2" x="19.126" y="2.521" width="2.52101" height="2.52101" transform="rotate(-90 19.126 2.521)" fill="white"/>
<rect id="Rectangle 22_2" x="16.6055" y="5.04199" width="2.52101" height="2.52101" transform="rotate(-90 16.6055 5.04199)" fill="white"/>
<rect id="Rectangle 23_2" x="14.084" y="7.56299" width="2.52101" height="2.52101" transform="rotate(-90 14.084 7.56299)" fill="white"/>
<rect id="Rectangle 24_2" x="11.5635" y="10.084" width="2.52101" height="2.52101" transform="rotate(-90 11.5635 10.084)" fill="white"/>
<rect id="Rectangle 25_2" x="9.04199" y="12.605" width="2.52101" height="2.52101" transform="rotate(-90 9.04199 12.605)" fill="white"/>
<rect id="Rectangle 26_2" x="6.52148" y="15.126" width="2.52101" height="2.52101" transform="rotate(-90 6.52148 15.126)" fill="white"/>
<rect id="Rectangle 27_2" x="4" y="17.647" width="2.52101" height="2.52101" transform="rotate(-90 4 17.647)" fill="white"/>
</g>
</g>
<defs>
<filter id="filter0_d_410_566" x="0" y="0" width="25.6475" height="25.647" filterUnits="userSpaceOnUse" color-interpolation-filters="sRGB">
<feFlood flood-opacity="0" result="BackgroundImageFix"/>
<feColorMatrix in="SourceAlpha" type="matrix" values="0 0 0 0 0 0 0 0 0 0 0 0 0 0 0 0 0 0 127 0" result="hardAlpha"/>
<feOffset dy="4"/>
<feGaussianBlur stdDeviation="2"/>
<feComposite in2="hardAlpha" operator="out"/>
<feColorMatrix type="matrix" values="0 0 0 0 0 0 0 0 0 0 0 0 0 0 0 0 0 0 0.25 0"/>
<feBlend mode="normal" in2="BackgroundImageFix" result="effect1_dropShadow_410_566"/>
<feBlend mode="normal" in="SourceGraphic" in2="effect1_dropShadow_410_566" result="shape"/>
</filter>
</defs>
</svg>
