<svg width="120" height="120" viewBox="0 0 120 120" fill="none" xmlns="http://www.w3.org/2000/svg">
<g opacity="0.15">
<path d="M85.4684 88.9355C104.762 69.5493 105.227 44.857 90.2626 29.8926C75.2983 14.9283 50.699 15.2773 31.2197 34.6868C13.2066 52.6533 8.85462 77.9508 20.2815 93.4737C19.7702 94.2845 19.393 95.1725 19.1644 96.1035C18.9213 96.7999 18.873 97.5495 19.0248 98.2714C19.1765 98.9933 19.5226 99.66 20.0255 100.2C20.5855 100.676 21.2581 101 21.9791 101.143C22.7002 101.286 23.4458 101.241 24.1448 101.014C25.0369 100.801 25.8867 100.439 26.6583 99.9435C42.1812 111.301 67.5252 106.925 85.4684 88.9355Z" fill="#EAD050"/>
<path d="M84.8154 34.8175C85.1028 35.1049 85.43 35.3469 85.7782 35.5298C86.1264 35.7126 86.4889 35.8327 86.845 35.8831C87.201 35.9335 87.5437 35.9133 87.8533 35.8237C88.163 35.734 88.4336 35.5766 88.6497 35.3605C88.8658 35.1444 89.0232 34.8738 89.1128 34.5642C89.2025 34.2545 89.2227 33.9119 89.1723 33.5558C89.1218 33.1998 89.0018 32.8373 88.8189 32.4891C88.6361 32.1408 88.3941 31.8136 88.1066 31.5262C87.5262 30.9457 86.7961 30.5624 86.077 30.4606C85.3579 30.3587 84.7088 30.5467 84.2723 30.9832C83.8359 31.4196 83.6479 32.0688 83.7497 32.7878C83.8516 33.5069 84.2349 34.237 84.8154 34.8175Z" fill="#604D42"/>
<path d="M93.498 28.3333C93.498 28.3333 100.829 27.8213 106.228 36.0133C111.628 44.2053 108.323 61.3573 109.347 68.3391C105.286 64.6753 101.989 60.2465 99.642 55.3064C96.0711 46.7315 93.9931 37.6089 93.498 28.3333Z" fill="#73D36E"/>
<path d="M54.1169 84.0595C54.1242 84.3314 54.185 84.5993 54.2957 84.8477C54.4065 85.0961 54.5651 85.3203 54.7625 85.5074C54.9599 85.6946 55.1922 85.841 55.4462 85.9383C55.7002 86.0357 55.9709 86.082 56.2428 86.0748C56.5147 86.0675 56.7825 86.0068 57.0309 85.896C57.2794 85.7852 57.5035 85.6266 57.6907 85.4292C57.8778 85.2318 58.0242 84.9995 58.1216 84.7455C58.2189 84.4915 58.2653 84.2208 58.258 83.9489C58.2508 83.677 58.19 83.4092 58.0792 83.1608C57.9685 82.9123 57.8099 82.6882 57.6125 82.501C57.4151 82.3139 57.1827 82.1675 56.9287 82.0701C56.6748 81.9728 56.4041 81.9264 56.1322 81.9337C55.8603 81.941 55.5925 82.0017 55.344 82.1125C55.0956 82.2232 54.8714 82.3818 54.6843 82.5792C54.4972 82.7766 54.3507 83.009 54.2534 83.263C54.156 83.517 54.1097 83.7876 54.1169 84.0595Z" fill="#E5A923"/>
<path d="M70.1873 82.9557C70.2019 83.5048 70.4341 84.0256 70.8328 84.4036C71.2315 84.7815 71.764 84.9856 72.3131 84.9709C72.8622 84.9562 73.3831 84.724 73.761 84.3254C74.1389 83.9267 74.343 83.3942 74.3283 82.8451C74.3211 82.5732 74.2603 82.3054 74.1496 82.0569C74.0388 81.8085 73.8802 81.5843 73.6828 81.3972C73.4854 81.21 73.2531 81.0636 72.9991 80.9663C72.7451 80.8689 72.4744 80.8226 72.2025 80.8298C71.9306 80.8371 71.6628 80.8978 71.4143 81.0086C71.1659 81.1194 70.9417 81.278 70.7546 81.4754C70.5675 81.6728 70.4211 81.9051 70.3237 82.1591C70.2264 82.4131 70.18 82.6838 70.1873 82.9557Z" fill="#E5A923"/>
<path d="M60.2244 88.8522C60.2316 89.1241 60.2924 89.3919 60.4031 89.6403C60.5139 89.8887 60.6725 90.1129 60.8699 90.3001C61.0673 90.4872 61.2997 90.6336 61.5536 90.7309C61.8076 90.8283 62.0783 90.8747 62.3502 90.8674C62.6221 90.8601 62.8899 90.7994 63.1384 90.6886C63.3868 90.5779 63.611 90.4192 63.7981 90.2218C63.9852 90.0244 64.1317 89.7921 64.229 89.5381C64.3263 89.2841 64.3727 89.0135 64.3654 88.7416C64.3582 88.4696 64.2974 88.2018 64.1867 87.9534C64.0759 87.705 63.9173 87.4808 63.7199 87.2937C63.5225 87.1065 63.2902 86.9601 63.0362 86.8628C62.7822 86.7654 62.5115 86.7191 62.2396 86.7263C61.9677 86.7336 61.6999 86.7943 61.4514 86.9051C61.203 87.0159 60.9788 87.1745 60.7917 87.3719C60.6046 87.5693 60.4582 87.8016 60.3608 88.0556C60.2635 88.3096 60.2171 88.5803 60.2244 88.8522Z" fill="#E5A923"/>
<path d="M62.9597 80.6596C62.967 80.9315 63.0277 81.1993 63.1385 81.4477C63.2492 81.6962 63.4078 81.9204 63.6052 82.1075C63.8026 82.2947 64.035 82.4411 64.289 82.5384C64.543 82.6358 64.8137 82.6822 65.0856 82.6749C65.3575 82.6676 65.6253 82.6069 65.8737 82.4961C66.1222 82.3853 66.3464 82.2267 66.5335 82.0293C66.7206 81.8319 66.867 81.5996 66.9644 81.3456C67.0617 81.0915 67.1081 80.8209 67.1008 80.5489C67.0935 80.277 67.0328 80.0092 66.9221 79.7608C66.8113 79.5123 66.6527 79.2881 66.4553 79.101C66.2579 78.9138 66.0255 78.7674 65.7715 78.6701C65.5176 78.5727 65.2469 78.5263 64.975 78.5336C64.703 78.5409 64.4352 78.6016 64.1868 78.7124C63.9383 78.8232 63.7142 78.9818 63.527 79.1792C63.3399 79.3766 63.1935 79.609 63.0961 79.863C62.9988 80.117 62.9524 80.3876 62.9597 80.6596Z" fill="#E5A923"/>
<path d="M71.4832 74.8952C71.4904 75.1671 71.5512 75.4349 71.6619 75.6834C71.7727 75.9318 71.9313 76.156 72.1287 76.3431C72.3261 76.5302 72.5584 76.6767 72.8124 76.774C73.0664 76.8714 73.3371 76.9177 73.609 76.9105C73.8809 76.9032 74.1487 76.8424 74.3971 76.7317C74.6456 76.6209 74.8698 76.4623 75.0569 76.2649C75.244 76.0675 75.3904 75.8352 75.4878 75.5812C75.5851 75.3272 75.6315 75.0565 75.6242 74.7846C75.617 74.5127 75.5562 74.2449 75.4455 73.9965C75.3347 73.748 75.1761 73.5239 74.9787 73.3367C74.7813 73.1496 74.5489 73.0032 74.295 72.9058C74.041 72.8085 73.7703 72.7621 73.4984 72.7694C73.2265 72.7766 72.9587 72.8374 72.7102 72.9482C72.4618 73.0589 72.2376 73.2175 72.0505 73.4149C71.8634 73.6123 71.717 73.8447 71.6196 74.0987C71.5223 74.3526 71.4759 74.6233 71.4832 74.8952Z" fill="#E5A923"/>
<path d="M46.9756 19.4664C61.6375 13.3922 76.6484 16.0221 87.1211 26.4482C87.3359 26.6675 87.6287 26.793 87.9356 26.7973C88.0919 26.801 88.2473 26.7718 88.3916 26.7117C88.5359 26.6516 88.666 26.5618 88.7735 26.4482C90.4946 24.6676 92.1183 22.7953 93.6375 20.8395C94.6103 19.5934 95.5042 18.2876 96.3138 16.9297L99.6884 18.2097C99.1298 18.9311 98.3385 19.9319 97.3611 21.1188C96.3836 22.3057 94.7778 24.0977 94.7545 24.0977C94.6381 24.2067 94.5452 24.3385 94.4818 24.4849C94.4184 24.6313 94.3858 24.7891 94.386 24.9487C94.3862 25.1082 94.4192 25.266 94.4829 25.4122C94.5466 25.5585 94.6397 25.6901 94.7565 25.7988C94.8732 25.9075 95.0111 25.9911 95.1615 26.0443C95.3119 26.0975 95.4716 26.1193 95.6307 26.1081C95.7899 26.097 95.945 26.0533 96.0866 25.9797C96.2281 25.9061 96.353 25.8042 96.4535 25.6802C96.4535 25.6802 97.9196 24.0977 99.1764 22.5617C101.201 20.1181 102.435 18.3959 102.435 18.3261C102.539 18.181 102.608 18.0138 102.638 17.8375C102.667 17.6612 102.655 17.4806 102.604 17.3095C102.552 17.1385 102.461 16.9816 102.339 16.8512C102.217 16.7208 102.067 16.6202 101.899 16.5573L96.1276 14.3697C95.8463 14.261 95.5338 14.2658 95.256 14.383C94.9781 14.5002 94.7566 14.7207 94.6382 14.9981C93.8209 16.5668 92.8462 18.0484 91.7291 19.4199C90.2396 21.3748 88.7502 23.0504 87.8658 24.0744C76.8345 13.5319 61.2651 11.0184 46.0913 17.3021C45.9361 17.3493 45.7925 17.4285 45.6697 17.5345C45.547 17.6406 45.4477 17.7711 45.3784 17.9178C45.309 18.0644 45.2711 18.2239 45.267 18.3861C45.263 18.5483 45.2929 18.7095 45.3548 18.8594C45.4167 19.0094 45.5093 19.1447 45.6266 19.2567C45.744 19.3688 45.8834 19.4551 46.036 19.51C46.1887 19.565 46.3511 19.5874 46.5129 19.5759C46.6747 19.5644 46.8323 19.5192 46.9756 19.4431V19.4664ZM34.9436 26.3551C35.1954 26.3551 35.4404 26.2735 35.6418 26.1224C37.135 24.9554 38.6887 23.8678 40.2964 22.8642C40.5314 22.6916 40.6931 22.437 40.7494 22.1509C40.8057 21.8647 40.7524 21.5678 40.6003 21.3191C40.4481 21.0703 40.208 20.8877 39.9276 20.8075C39.6472 20.7273 39.3469 20.7554 39.0862 20.8861C37.3829 21.9311 35.736 23.0652 34.1524 24.2839C33.957 24.4304 33.8127 24.6347 33.7398 24.8678C33.667 25.1009 33.6694 25.3511 33.7466 25.5828C33.8239 25.8145 33.972 26.016 34.1702 26.1588C34.3683 26.3016 34.6063 26.3784 34.8505 26.3784L34.9436 26.3551ZM96.3604 64.1501C96.0703 64.0453 95.7504 64.0599 95.4711 64.1908C95.1918 64.3218 94.9759 64.5582 94.8709 64.8482C92.1422 72.0413 87.8681 78.5478 82.3502 83.9086C64.9422 101.317 40.3196 105.948 25.0527 94.7071C24.8557 94.5668 24.6197 94.4914 24.3778 94.4914C24.1359 94.4914 23.9 94.5668 23.7029 94.7071C23.0521 95.1249 22.3364 95.4316 21.5851 95.6148C21.0899 95.7732 20.5634 95.8073 20.052 95.714C19.5405 95.6206 19.06 95.4027 18.6527 95.0795C18.3076 94.6891 18.0737 94.2131 17.9755 93.7014C17.8772 93.1896 17.9182 92.6609 18.0942 92.1704C18.285 91.3484 18.6072 90.5625 19.0484 89.8431C19.1887 89.6461 19.2641 89.4101 19.2641 89.1682C19.2641 88.9263 19.1887 88.6904 19.0484 88.4933C7.69128 73.3195 12.3225 48.6737 29.7305 31.289C30.4287 30.5908 31.1347 29.9159 31.8484 29.2642C31.972 29.1649 32.0741 29.0414 32.1483 28.9012C32.2225 28.761 32.2672 28.6071 32.2798 28.449C32.2923 28.2909 32.2724 28.1319 32.2213 27.9818C32.1701 27.8316 32.0888 27.6935 31.9824 27.5759C31.8759 27.4584 31.7465 27.3638 31.6022 27.298C31.4579 27.2323 31.3016 27.1967 31.143 27.1935C30.9845 27.1904 30.8269 27.2196 30.6801 27.2796C30.5332 27.3395 30.4002 27.4288 30.2891 27.5421C29.5444 28.2247 28.8074 28.9229 28.0782 29.6366C10.1116 47.6031 5.24764 73.11 16.6047 89.3311C16.2259 90.0698 15.9368 90.8511 15.7436 91.6584C15.4678 92.5402 15.4324 93.4797 15.641 94.3798C15.8497 95.2798 16.2949 96.1079 16.9305 96.7784C17.6237 97.3919 18.464 97.8151 19.3695 98.0068C20.2751 98.1985 21.2148 98.1522 22.0971 97.8722C22.868 97.6924 23.6115 97.4106 24.308 97.0344C30.3507 101.131 37.5118 103.261 44.8113 103.132C58.0302 103.132 72.5524 97.0111 84.0025 85.561C89.7661 79.9655 94.231 73.1728 97.0818 65.6628C97.1368 65.5163 97.1617 65.3602 97.1549 65.2039C97.1482 65.0476 97.11 64.8943 97.0427 64.7531C96.9753 64.6118 96.8802 64.4856 96.7629 64.382C96.6457 64.2784 96.5088 64.1995 96.3604 64.1501ZM108.02 59.8446C108.299 51.8621 108.648 41.9246 104.785 36.0599C99.0833 27.4024 91.3335 27.8446 91.0076 27.8679C90.7072 27.8917 90.4278 28.0312 90.2281 28.2569C90.0284 28.4826 89.9241 28.777 89.9371 29.0781C90.4229 38.5097 92.5411 47.7856 96.1975 56.4933C98.5978 61.5965 101.992 66.1696 106.181 69.945C106.362 70.1012 106.587 70.1979 106.825 70.2218C107.063 70.2458 107.303 70.1959 107.511 70.0789C107.72 69.9619 107.887 69.7835 107.991 69.568C108.094 69.3525 108.129 69.1103 108.09 68.8744C107.834 65.8707 107.811 62.8519 108.02 59.8446ZM105.693 59.8446C105.693 62.1719 105.53 64.313 105.576 66.1515C102.615 63.0201 100.157 59.4479 98.292 55.5624C94.9159 47.5109 92.9025 38.9539 92.3342 30.2417C94.4959 30.5515 96.5615 31.3389 98.3811 32.5465C100.201 33.7542 101.728 35.3518 102.853 37.2235C106.298 42.5995 105.949 52.1181 105.693 59.7515V59.8446Z" fill="#604D42"/>
</g>
</svg>
