<svg width="20" height="20" viewBox="0 0 20 20" fill="none" xmlns="http://www.w3.org/2000/svg">
<rect x="5.04199" y="5.04199" width="2.10084" height="2.10084" transform="rotate(-180 5.04199 5.04199)" fill="#BD2000"/>
<rect x="7.14355" y="7.14282" width="2.10084" height="2.10084" transform="rotate(-180 7.14355 7.14282)" fill="#BD2000"/>
<rect x="9.24414" y="9.24371" width="2.10084" height="2.10084" transform="rotate(-180 9.24414 9.24371)" fill="#BD2000"/>
<rect x="11.3447" y="11.3445" width="2.10084" height="2.10084" transform="rotate(-180 11.3447 11.3445)" fill="#BD2000"/>
<rect x="13.4453" y="13.4454" width="2.10084" height="2.10084" transform="rotate(-180 13.4453 13.4454)" fill="#BD2000"/>
<rect x="15.5469" y="15.5462" width="2.10084" height="2.10084" transform="rotate(-180 15.5469 15.5462)" fill="#BD2000"/>
<rect x="17.6475" y="17.647" width="2.10084" height="2.10084" transform="rotate(-180 17.6475 17.647)" fill="#BD2000"/>
<rect x="15.5469" y="5.04199" width="2.10084" height="2.10084" transform="rotate(-90 15.5469 5.04199)" fill="#BD2000"/>
<rect x="13.4453" y="7.14282" width="2.10084" height="2.10084" transform="rotate(-90 13.4453 7.14282)" fill="#BD2000"/>
<rect x="11.3447" y="9.24365" width="2.10084" height="2.10084" transform="rotate(-90 11.3447 9.24365)" fill="#BD2000"/>
<rect x="9.24414" y="11.3445" width="2.10084" height="2.10084" transform="rotate(-90 9.24414 11.3445)" fill="#BD2000"/>
<rect x="7.14355" y="13.4454" width="2.10084" height="2.10084" transform="rotate(-90 7.14355 13.4454)" fill="#BD2000"/>
<rect x="5.04199" y="15.5462" width="2.10084" height="2.10084" transform="rotate(-90 5.04199 15.5462)" fill="#BD2000"/>
<rect x="2.94141" y="17.647" width="2.10084" height="2.10084" transform="rotate(-90 2.94141 17.647)" fill="#BD2000"/>
</svg>
