<svg viewBox="0 0 120 120" fill="none" xmlns="http://www.w3.org/2000/svg">
<g id="pixel-refresh">
<g id="Group 62">
<g id="Group 60">
<rect id="Rectangle 23" x="99" y="70" width="10" height="10" transform="rotate(-180 99 70)" fill="white"/>
<rect id="Rectangle 24" x="99" y="80" width="10" height="10" transform="rotate(-180 99 80)" fill="white"/>
<rect id="Rectangle 25" x="94" y="90" width="10" height="10" transform="rotate(-180 94 90)" fill="white"/>
<rect id="Rectangle 26" x="84" y="95" width="10" height="10" transform="rotate(-180 84 95)" fill="white"/>
<rect id="Rectangle 27" x="75" y="95" width="10" height="10" transform="rotate(-180 75 95)" fill="white"/>
<g id="Group 58">
<rect id="Rectangle 17" x="65" y="75" width="10" height="10" transform="rotate(90 65 75)" fill="white"/>
<rect id="Rectangle 21" x="75" y="65" width="10" height="10" transform="rotate(90 75 65)" fill="white"/>
<rect id="Rectangle 23_2" width="10" height="10" transform="matrix(-1.31134e-07 -1 -1 1.31134e-07 65 105)" fill="white"/>
<rect id="Rectangle 24_2" width="9" height="10" transform="matrix(-1.31134e-07 -1 -1 1.31134e-07 75 114)" fill="white"/>
<rect id="Rectangle 14" x="55" y="85" width="10" height="10" transform="rotate(90 55 85)" fill="white"/>
</g>
</g>
<g id="Group 61">
<rect id="Rectangle 23_3" x="21" y="50" width="10" height="10" fill="white"/>
<rect id="Rectangle 24_3" x="21" y="40" width="10" height="10" fill="white"/>
<rect id="Rectangle 25_2" x="26" y="30" width="10" height="10" fill="white"/>
<rect id="Rectangle 26_2" x="36" y="25" width="10" height="10" fill="white"/>
<rect id="Rectangle 27_2" x="45" y="25" width="10" height="10" fill="white"/>
<g id="Group 58_2">
<rect id="Rectangle 17_2" x="55" y="45" width="10" height="10" transform="rotate(-90 55 45)" fill="white"/>
<rect id="Rectangle 21_2" x="45" y="55" width="10" height="10" transform="rotate(-90 45 55)" fill="white"/>
<rect id="Rectangle 23_4" width="10" height="10" transform="matrix(4.37114e-08 1 1 -4.37114e-08 55 15)" fill="white"/>
<rect id="Rectangle 24_4" width="9" height="10" transform="matrix(4.37114e-08 1 1 -4.37114e-08 45 6)" fill="white"/>
<rect id="Rectangle 14_2" x="65" y="35" width="10" height="10" transform="rotate(-90 65 35)" fill="white"/>
</g>
</g>
</g>
</g>
</svg>
