<svg width="20" height="20" viewBox="0 0 20 20" fill="none" xmlns="http://www.w3.org/2000/svg">
<path d="M4.16699 9.99999C4.16699 9.77898 4.07919 9.56702 3.92291 9.41073C3.76663 9.25445 3.55467 9.16666 3.33366 9.16666H2.50033C2.27931 9.16666 2.06735 9.25445 1.91107 9.41073C1.75479 9.56702 1.66699 9.77898 1.66699 9.99999C1.66699 10.221 1.75479 10.433 1.91107 10.5892C2.06735 10.7455 2.27931 10.8333 2.50033 10.8333H3.33366C3.55467 10.8333 3.76663 10.7455 3.92291 10.5892C4.07919 10.433 4.16699 10.221 4.16699 9.99999ZM4.70033 14.1667L4.10866 14.7583C3.95345 14.9145 3.86633 15.1257 3.86633 15.3458C3.86633 15.566 3.95345 15.7772 4.10866 15.9333C4.26479 16.0885 4.476 16.1757 4.69616 16.1757C4.91631 16.1757 5.12752 16.0885 5.28366 15.9333L5.87533 15.3417C6.01185 15.1822 6.08319 14.9772 6.07509 14.7674C6.06698 14.5577 5.98004 14.3588 5.83163 14.2104C5.68322 14.0619 5.48427 13.975 5.27454 13.9669C5.06481 13.9588 4.85974 14.0301 4.70033 14.1667V14.1667ZM10.0003 4.16666C10.2213 4.16666 10.4333 4.07886 10.5896 3.92258C10.7459 3.7663 10.8337 3.55434 10.8337 3.33332V2.49999C10.8337 2.27898 10.7459 2.06701 10.5896 1.91073C10.4333 1.75445 10.2213 1.66666 10.0003 1.66666C9.77931 1.66666 9.56735 1.75445 9.41107 1.91073C9.25479 2.06701 9.16699 2.27898 9.16699 2.49999V3.33332C9.16699 3.55434 9.25479 3.7663 9.41107 3.92258C9.56735 4.07886 9.77931 4.16666 10.0003 4.16666ZM14.717 6.11666C14.9356 6.11574 15.1451 6.02894 15.3003 5.87499L15.892 5.28332C15.9792 5.20862 16.0501 5.11669 16.1001 5.0133C16.1501 4.90991 16.1782 4.7973 16.1827 4.68253C16.1871 4.56777 16.1678 4.45333 16.1259 4.34639C16.084 4.23945 16.0204 4.14233 15.9392 4.06111C15.858 3.9799 15.7609 3.91635 15.6539 3.87446C15.547 3.83256 15.4325 3.81322 15.3178 3.81766C15.203 3.82209 15.0904 3.8502 14.987 3.90022C14.8836 3.95024 14.7917 4.02109 14.717 4.10832L14.167 4.69999C14.0118 4.85613 13.9247 5.06734 13.9247 5.28749C13.9247 5.50764 14.0118 5.71885 14.167 5.87499C14.3139 6.02113 14.51 6.10728 14.717 6.11666V6.11666ZM4.71699 5.87499C4.87221 6.02894 5.08171 6.11574 5.30033 6.11666C5.41 6.11729 5.51872 6.09627 5.62025 6.0548C5.72178 6.01333 5.81413 5.95222 5.89199 5.87499C6.0472 5.71885 6.13432 5.50764 6.13432 5.28749C6.13432 5.06734 6.0472 4.85613 5.89199 4.69999L5.30033 4.10832C5.22317 4.03008 5.13137 3.96779 5.03014 3.92503C4.92892 3.88226 4.82027 3.85985 4.71038 3.85908C4.6005 3.85831 4.49154 3.87918 4.38973 3.92052C4.28791 3.96185 4.19524 4.02284 4.11699 4.09999C4.03875 4.17714 3.97646 4.26895 3.9337 4.37017C3.89093 4.47139 3.86852 4.58005 3.86775 4.68993C3.86619 4.91185 3.95284 5.1253 4.10866 5.28332L4.71699 5.87499ZM17.5003 9.16666H16.667C16.446 9.16666 16.234 9.25445 16.0777 9.41073C15.9215 9.56702 15.8337 9.77898 15.8337 9.99999C15.8337 10.221 15.9215 10.433 16.0777 10.5892C16.234 10.7455 16.446 10.8333 16.667 10.8333H17.5003C17.7213 10.8333 17.9333 10.7455 18.0896 10.5892C18.2459 10.433 18.3337 10.221 18.3337 9.99999C18.3337 9.77898 18.2459 9.56702 18.0896 9.41073C17.9333 9.25445 17.7213 9.16666 17.5003 9.16666ZM15.3003 14.1667C15.142 14.0786 14.9593 14.0445 14.7799 14.0696C14.6005 14.0947 14.4341 14.1776 14.306 14.3057C14.1779 14.4338 14.095 14.6001 14.0699 14.7795C14.0449 14.959 14.0789 15.1417 14.167 15.3L14.7587 15.8917C14.9148 16.0469 15.126 16.134 15.3462 16.134C15.5663 16.134 15.7775 16.0469 15.9337 15.8917C16.0889 15.7355 16.176 15.5243 16.176 15.3042C16.176 15.084 16.0889 14.8728 15.9337 14.7167L15.3003 14.1667ZM10.0003 5.41666C9.09383 5.41666 8.20769 5.68546 7.45396 6.18909C6.70024 6.69271 6.11278 7.40853 5.76588 8.24602C5.41898 9.08352 5.32821 10.0051 5.50506 10.8942C5.68191 11.7832 6.11843 12.5999 6.75942 13.2409C7.40041 13.8819 8.21708 14.3184 9.10616 14.4953C9.99524 14.6721 10.9168 14.5813 11.7543 14.2344C12.5918 13.8875 13.3076 13.3001 13.8112 12.5464C14.3149 11.7926 14.5837 10.9065 14.5837 9.99999C14.5815 8.78509 14.0979 7.62058 13.2388 6.76152C12.3797 5.90245 11.2152 5.41886 10.0003 5.41666ZM10.0003 12.9167C9.42346 12.9167 8.85956 12.7456 8.37991 12.4251C7.90027 12.1046 7.52643 11.6491 7.30568 11.1162C7.08492 10.5832 7.02716 9.99675 7.1397 9.43098C7.25224 8.8652 7.53003 8.3455 7.93793 7.9376C8.34583 7.52969 8.86553 7.25191 9.43131 7.13937C9.99709 7.02683 10.5835 7.08459 11.1165 7.30534C11.6494 7.5261 12.105 7.89993 12.4254 8.37958C12.7459 8.85922 12.917 9.42313 12.917 9.99999C12.917 10.7735 12.6097 11.5154 12.0627 12.0624C11.5157 12.6094 10.7739 12.9167 10.0003 12.9167V12.9167ZM10.0003 15.8333C9.77931 15.8333 9.56735 15.9211 9.41107 16.0774C9.25479 16.2337 9.16699 16.4456 9.16699 16.6667V17.5C9.16699 17.721 9.25479 17.933 9.41107 18.0892C9.56735 18.2455 9.77931 18.3333 10.0003 18.3333C10.2213 18.3333 10.4333 18.2455 10.5896 18.0892C10.7459 17.933 10.8337 17.721 10.8337 17.5V16.6667C10.8337 16.4456 10.7459 16.2337 10.5896 16.0774C10.4333 15.9211 10.2213 15.8333 10.0003 15.8333Z" fill="white"/>
</svg>
